<svg xmlns="http://www.w3.org/2000/svg" fill="#000000" viewBox="0 0 791.908 791.908">
    <path d="M648.587,99.881H509.156C500.276,43.486,452.761,0,394.444,0S287.696,43.486,279.731,99.881H142.315
        c-26.733,0-48.43,21.789-48.43,48.43v49.437c0,24.719,17.761,44.493,41.564,47.423V727.64c0,35.613,28.655,64.268,64.268,64.268
        h392.475c35.613,0,64.268-28.655,64.268-64.268V246.087c23.711-3.937,41.564-23.711,41.564-47.423v-49.437
        C697.017,121.67,675.228,99.881,648.587,99.881z M394.444,36.62c38.543,0,70.219,26.733,77.085,63.261H316.351
        C324.225,64.268,355.901,36.62,394.444,36.62z M618.924,728.739c0,14.831-11.901,27.648-27.648,27.648H198.71
        c-14.831,0-27.648-11.901-27.648-27.648V247.185h446.948v481.554H618.924z M660.397,197.748c0,6.958-4.944,11.902-11.902,11.902
        H142.223c-6.958,0-11.902-4.944-11.902-11.902v-49.437c0-6.958,4.944-11.902,11.902-11.902h505.265
        c6.958,0,11.901,4.944,11.901,11.902v49.437H660.397z M253.09,661.45V349.081c0-9.887,7.873-17.761,17.761-17.761
        s17.761,7.873,17.761,17.761V661.45c0,9.887-7.873,17.761-17.761,17.761C260.964,680.309,253.09,671.337,253.09,661.45z
        M378.606,661.45V349.081c0-9.887,7.873-17.761,17.761-17.761c9.887,0,17.761,7.873,17.761,17.761V661.45
        c0,9.887-7.873,17.761-17.761,17.761C386.57,680.309,378.606,671.337,378.606,661.45z M504.212,661.45V349.081
        c0-9.887,7.873-17.761,17.761-17.761s17.761,7.873,17.761,17.761V661.45c0,9.887-7.873,17.761-17.761,17.761
        C513.093,680.309,504.212,671.337,504.212,661.45z"/>
</svg>
