<svg fill="#000000" xmlns="http://www.w3.org/2000/svg" viewBox="0 0 137.145 137.145">
  <path d="m54.858,27.429l-27.459-.029 .03,27.458 10.285-10.285 17.116,17.115 6.858-6.858-17.116-17.116 10.286-10.285zm-.028,48.027l-17.116,17.116-10.285-10.285-.03,27.458 27.459-.03-10.286-10.286 17.116-17.115-6.858-6.858zm27.484,0l-6.858,6.859 17.116,17.115-10.285,10.286h27.429v-27.429l-10.286,10.285-17.116-17.116zm27.402-75.456h-82.287c-15.148,0-27.429,12.28-27.429,27.429v82.286c0,15.149 12.28,27.429 27.429,27.429h82.286c15.148,0 27.429-12.28 27.429-27.429v-82.286c0-15.149-12.28-27.429-27.428-27.429zm13.714,102.859c0,11.361-9.21,20.571-20.571,20.571h-68.573c-11.362,0-20.572-9.21-20.572-20.571v-68.573c0-11.361 9.21-20.571 20.572-20.571h68.572c11.361,0 20.571,9.21 20.571,20.571v68.573zm-30.857-65.145l-17.116,17.116 6.858,6.858 17.116-17.116 10.285,10.285 .03-27.458-27.459,.03 10.286,10.285z"/>
</svg>
