<svg xmlns="http://www.w3.org/2000/svg" fill="#000000" xml:space="preserve" style="enable-background:new 0 0 510 510;" viewBox="0 0 510 510" height="510px" width="510px" y="0px" x="0px">
   <path d="m 280.5,229.5 h -51 v 0 h -102 v 51 h 102 v 0 h 51 v 0 h 102 v -51 z M 255,0 C 114.75,0 0,114.75 0,255 0,395.25 114.75,510 255,510 395.25,510 510,395.25 510,255 510,114.75 395.25,0 255,0 Z m 0,459 C 142.8,459 51,367.2 51,255 51,142.8 142.8,51 255,51 c 112.2,0 204,91.8 204,204 0,112.2 -91.8,204 -204,204 z" />
</svg>